<?xml version="1.0" encoding="utf-8"?>
<!-- Generator: Adobe Illustrator 18.0.0, SVG Export Plug-In . SVG Version: 6.00 Build 0)  -->
<!DOCTYPE svg PUBLIC "-//W3C//DTD SVG 1.1//EN" "http://www.w3.org/Graphics/SVG/1.1/DTD/svg11.dtd">
<svg version="1.1" id="Layer_1" xmlns="http://www.w3.org/2000/svg" xmlns:xlink="http://www.w3.org/1999/xlink" x="0px" y="0px"
	 viewBox="0 0 168.5 45" style="enable-background:new 0 0 168.5 45;" xml:space="preserve">
<style type="text/css">
	.Drop_x0020_Shadow{fill:none;}
	.Outer_x0020_Glow_x0020_5_x0020_pt{fill:none;}
	.Blue_x0020_Neon{fill:none;stroke:#8AACDA;stroke-width:7;stroke-linecap:round;stroke-linejoin:round;}
	.Chrome_x0020_Highlight{fill:url(#SVGID_1_);stroke:#FFFFFF;stroke-width:0.3629;stroke-miterlimit:1;}
	.Jive_GS{fill:#FFDD00;}
	.Alyssa_GS{fill:#A6D0E4;}
	.label_x002D_green{fill:#00A9A3;}
	.skyway_x002D_dark{fill:#575757;}
	.st0{fill:#575757;}
</style>
<linearGradient id="SVGID_1_" gradientUnits="userSpaceOnUse" x1="-211" y1="-125" x2="-211" y2="-126">
	<stop  offset="0" style="stop-color:#656565"/>
	<stop  offset="0.618" style="stop-color:#1B1B1B"/>
	<stop  offset="0.6292" style="stop-color:#545454"/>
	<stop  offset="0.9831" style="stop-color:#3E3E3E"/>
</linearGradient>
<g>
	<g>
		<path class="label_x002D_green" d="M145.5,12.8c0.5,0.9,1.1,1.3,1.7,1.3c0.9,0,1.5-0.5,1.5-2.1V3.5h3.5v8.7c0,2.7-1.4,4.9-4.5,4.9
			c-2.2,0-3.6-0.8-4.6-2.5L145.5,12.8z"/>
		<path class="label_x002D_green" d="M155.9,12.7c0.9,0.8,2.1,1.3,3.1,1.3c1.1,0,1.5-0.3,1.5-0.9c0-0.6-0.7-0.8-1.8-1.3l-1.7-0.7
			c-1.4-0.6-2.7-1.8-2.7-3.7c0-2.3,2.1-4.1,5-4.1c1.5,0,3.2,0.6,4.4,1.8L162,7.2c-0.9-0.6-1.7-1-2.7-1c-0.9,0-1.4,0.3-1.4,0.9
			c0,0.6,0.8,0.9,2,1.3l1.6,0.6c1.7,0.7,2.6,1.8,2.6,3.7c0,2.3-1.9,4.3-5.2,4.3c-1.7,0-3.6-0.6-5.1-1.9L155.9,12.7z"/>
	</g>
</g>
<path class="st0" d="M19.5,25h-8.3c-0.6,0-1.2,0.4-1.3,1l-1.8,6.4c-0.2,0.6-0.7,1-1.3,1H4.1c-0.9,0-1.6-0.9-1.3-1.8L12,3.4
	c0.2-0.6,0.7-1,1.3-1h4.4c0.6,0,1.1,0.4,1.3,1l9.2,28.1c0.3,0.9-0.4,1.8-1.3,1.8H24c-0.6,0-1.2-0.4-1.3-1L20.8,26
	C20.7,25.4,20.1,25,19.5,25z M17.5,20.7c0.9,0,1.6-0.9,1.3-1.8l-0.6-2c-0.9-3.3-1.9-6.8-2.8-10.2h-0.2c-0.8,3.4-1.7,6.9-2.7,10.2
	l-0.6,2c-0.3,0.9,0.4,1.8,1.3,1.8H17.5z"/>
<path class="st0" d="M37.7,9.6c2.6,0,6,0,6,0l-0.1-1.2V5.8c0-1,0.8-1.8,1.8-1.8h1.8c1,0,1.8,0.8,1.8,1.8v25.7c0,1-0.8,1.8-1.8,1.8
	h-1.1c-0.9,0-1.7-0.7-1.8-1.5l-0.1-1h-0.2c-1.7,1.7-4.1,3.1-6.6,3.1c-5.8,0-9.5-4.5-9.5-12.1C27.8,14.2,32.6,9.6,37.7,9.6z
	 M38.7,29.4c1.6,0,3-0.6,4.4-2.1c0.3-0.3,0.5-0.8,0.5-1.2l0.1-10.2c0-1-0.8-1.8-1.8-1.8c-1,0-2.2,0-2.9,0c-3,0-5.4,2.8-5.4,7.6
	C33.5,26.7,35.3,29.4,38.7,29.4z"/>
<path class="st0" d="M66.2,33.2c-0.3,0-0.5-0.2-0.5-0.4L65.3,31L65,31.1c-3.2,1.7-7,5.5-11.9,0.3c-1.6-1.7-2.3-4.1-1.7-6.3
	c1.1-3.6,5.3-5.6,13.2-6.4c0.1,0,0.2-0.1,0.2-0.2C64.6,16,63.6,14,60.5,14c0,0-4.3,0-5.9,0.3c-1.2,0.2-2.1-1.6-2.3-2.6
	c-0.1-0.4,0.2-0.7,0.6-0.8l8.3-1.2c0.2,0,0.4,0,0.6,0c5.6,0.1,8.3,3.6,8.3,10v13.1c0,0.3-0.2,0.5-0.5,0.5L66.2,33.2z M59.7,29.6
	c1.9,0,3.3-0.9,5-2.5c0,0,0.1-0.1,0.1-0.1v-3.9c0-0.7-0.6-1.2-1.3-1.1c-5.3,0.9-7.1,2.4-7.1,4.6C56.4,28.7,57.8,29.6,59.7,29.6z"/>
<path class="st0" d="M78.4,35.2V41c0,0.8-0.7,1.5-1.5,1.5h-2.4c-0.8,0-1.5-0.7-1.5-1.5V11.2c0-0.8,0.7-1.5,1.5-1.5h2.9
	c0,0,0.1,0,0.1,0L80,9.5l0,0c-0.2,0,2.5,0.1,5,0.1c5.8,0,9.1,4.6,9.1,11.8c0,7.9-4.8,12.5-9.9,12.5c-1.9,0-3.8-0.8-5.5-2.2
	c-0.2-0.1-0.4,0-0.4,0.2L78.4,35.2z M83.1,29.4c3.1,0,5.4-2.7,5.4-8c0-4.6-1.5-7.4-5-7.4c-1,0-2.6,0.1-3.7,0.2
	c-0.8,0.1-1.4,0.7-1.4,1.5v11c0,0.5,0.3,1,0.7,1.3C80.5,29,81.9,29.4,83.1,29.4z"/>
<path class="st0" d="M117.8,9.6c6.3,0,9.6,4.5,9.6,11c0,0.5,0,1.1-0.1,1.5c-0.1,0.6-0.6,1-1.2,1h-12.3c-0.7,0-1.3,0.7-1.1,1.4
	c0.9,3.3,3.3,5.1,6.6,5.1c1.6,0,3-0.4,4.4-1.1c0.6-0.3,1.3-0.1,1.6,0.5l0.7,1.4c0.3,0.6,0.1,1.3-0.5,1.6c-2,1.1-4.4,1.9-6.9,1.9
	c-6.4,0-11.4-4.5-11.4-12.1C107.1,14.2,112.4,9.6,117.8,9.6z M121.4,19.7c0.7,0,1.2-0.6,1.2-1.3c-0.3-2.9-1.9-4.6-4.6-4.6
	c-2.4,0-4.4,1.5-5.3,4.4c-0.2,0.8,0.3,1.5,1.1,1.5H121.4z"/>
<path class="st0" d="M130.1,10.1h2c0.7,0,1.2,0.5,1.3,1.2l0.3,2.9h0.2c1.7-3,4.1-4.7,6.6-4.7c0.5,0,0.9,0,1.3,0.1
	c0.7,0.1,1.2,0.8,1.1,1.6l-0.4,2.2c-0.1,0.7-0.8,1.2-1.5,1c-0.4-0.1-0.7-0.1-1.2-0.1c-1.8,0-3.9,1.2-5.4,4.5
	c-0.1,0.2-0.1,0.4-0.1,0.5V32c0,0.7-0.6,1.3-1.3,1.3h-2.8c-0.7,0-1.3-0.6-1.3-1.3V11.5C128.8,10.7,129.4,10.1,130.1,10.1z"/>
<path class="st0" d="M111.6,31.2l-1.8-4.1c-2.1,2.6-4.8,2.4-5.5,2.3c-1.6-0.4-2.4-1.6-2.4-3.9v-10c0-0.6,0.6-1.5,1.2-1.5h3.8
	c0.6,0,1,0,1-0.6v-2.2c0-0.6-0.5-1.2-1-1.2h-3.8c-0.6,0-1.2-0.3-1.2-0.9V4.9c0-0.6-0.4-0.9-0.9-0.9h-2.5c-0.5,0-1,0.3-1.1,0.9
	L97,9.3c-0.1,0.5-0.5,0.9-1,0.9l-1.9,0.1c-0.6,0-1.2,0.5-1.2,1v2c0,0.6,0.8,0.6,1.4,0.6h1.2c0.6,0,1.4,0.9,1.4,1.5v10
	c0,5,1.8,8.4,7.2,8.4c0.6,0,1.1-0.1,1.7-0.1l0,0c0,0,0,0,0,0c0.7-0.1,1.3-0.2,1.9-0.4c0.1,0,0.1-0.1,0.2-0.1
	C111.2,32.3,111.6,31.2,111.6,31.2z"/>
<g>
</g>
<g>
</g>
<g>
</g>
<g>
</g>
<g>
</g>
<g>
</g>
<g>
</g>
<g>
</g>
<g>
</g>
<g>
</g>
<g>
</g>
<g>
</g>
<g>
</g>
<g>
</g>
<g>
</g>
<g>
</g>
</svg>
