<?xml version="1.0" encoding="utf-8"?>
<!-- Generator: Adobe Illustrator 18.0.0, SVG Export Plug-In . SVG Version: 6.00 Build 0)  -->
<!DOCTYPE svg PUBLIC "-//W3C//DTD SVG 1.1//EN" "http://www.w3.org/Graphics/SVG/1.1/DTD/svg11.dtd">
<svg version="1.1" id="Layer_1" xmlns="http://www.w3.org/2000/svg" xmlns:xlink="http://www.w3.org/1999/xlink" x="0px" y="0px"
	 viewBox="0 0 164 40" style="enable-background:new 0 0 164 40;" xml:space="preserve">
<style type="text/css">
	.st0{fill:#575757;}
	.label_x002D_green{fill:#00A9A3;}
</style>
<g>
	<g>
		<path class="label_x002D_green" d="M143.5,12.8c0.5,0.9,1.1,1.3,1.7,1.3c0.9,0,1.5-0.5,1.5-2.1V3.5h3.5v8.7c0,2.7-1.4,4.9-4.5,4.9
			c-2.2,0-3.6-0.8-4.6-2.5L143.5,12.8z"/>
		<path class="label_x002D_green" d="M153.9,12.7c0.9,0.8,2.1,1.3,3.1,1.3c1.1,0,1.5-0.3,1.5-0.9c0-0.6-0.7-0.8-1.8-1.3l-1.7-0.7
			c-1.4-0.6-2.7-1.8-2.7-3.7c0-2.3,2.1-4.1,5-4.1c1.5,0,3.2,0.6,4.4,1.8L160,7.2c-0.9-0.6-1.7-1-2.7-1c-0.9,0-1.4,0.3-1.4,0.9
			c0,0.6,0.8,0.9,2,1.3l1.6,0.6c1.7,0.7,2.6,1.8,2.6,3.7c0,2.3-1.9,4.3-5.2,4.3c-1.7,0-3.6-0.6-5.1-1.9L153.9,12.7z"/>
	</g>
</g>
<g>
	<path class="st0" d="M19.1,3.1C18.9,2.5,18.4,2,17.8,2h-4.7c-0.6,0-1.1,0.5-1.3,1.1L2.5,32.1C2.2,33,2.8,34,3.7,34h2.9
		c0.6,0,1.1-0.4,1.3-1l1.9-6.8c0.2-0.6,0.7-1.2,1.3-1.2h8.6c0.6,0,1.1,0.6,1.3,1.1l1.9,6.8c0.2,0.6,0.7,1.1,1.3,1.1h3.1
		c0.9,0,1.5-1,1.3-1.9L19.1,3.1z M17.7,21h-4.6c-0.9,0-1.5-0.9-1.3-1.7l0.7-2.2c0.8-2.8,1.5-5.7,2.5-8.7v0c0,0,0,0,0,0c0,0,0,0,0,0
		c0-0.2,0.1-0.8,0.5-0.8c0.2,0,0.3,0.2,0.4,0.4c0,0.1,0.1,0.3,0.1,0.4c0,0,0,0,0,0v0c1,2.9,1.5,5.9,2.3,8.7l0.6,2.2
		C19.2,20.1,18.5,21,17.7,21z"/>
	<path class="st0" d="M78.5,10h-7.2c-0.7,0-1.3,0.5-1.3,1.2v22.7v4.2c0,0.7,0.6,0.9,1.3,0.9h3.2c0.7,0,1.5-0.2,1.5-0.9v-3
		c0-0.7,0.4-1.2,1.1-1.2C85.8,33.8,92,29.5,92,21.8C92,16.5,88.1,10,78.5,10z M86.2,22c-0.6,3.7-1.7,6-8.1,6h-1.2
		c-0.7,0-1.2-0.5-1.2-1.2l0-10.8c0-0.7,0.5-1,1.2-1h1.2C84.5,15,86.8,18.4,86.2,22z"/>
	<path class="st0" d="M60.2,9.6c-3.4,0-8.1,0.5-8.9,0.6c-0.1,0-0.1,0.1-0.1,0.1l1.5,2.7c0.3,0.5,0.8,0.9,1.5,0.9
		c1.2,0.1,3.4,0.1,5,0.1c3.1,0,4.2,2.1,4.3,4.5c0,0.1,0,0.1-0.1,0.1c-8.4,0.9-12.6,3-13.6,6.9c-1.2,4.6,2.7,9,7.5,8.7
		c2.5-0.2,4.7-1.3,6.7-3.3H64l0.2,1.5c0.1,0.8,0.8,1.5,1.6,1.5h1.6c0.9,0,1.6-0.8,1.6-1.7V19.9C69,13.3,66.1,9.6,60.2,9.6z M63,27.5
		c0,0,0.2,0.1,0.2,0.1c-1.7,1.6-3.1,2.6-5,2.6c-2,0-3.3-0.9-3.3-3c0-2.4,1.9-4,8.2-4.9c0.1,0-0.1,0-0.1,0.1V27.5z"/>
	<path class="st0" d="M104.8,30.7c-0.1-0.5-0.6-0.8-1.1-0.7c-0.5,0.1-0.9,0.2-1.4,0.2c-2.3,0-3.2-1.4-3.2-4.2v-5.3v-5.1
		c0-0.5,0.2-0.7,0.7-0.7h4.2c0.5,0,0.9-0.5,0.9-1l0-2.9c0-0.5-0.4-1.1-0.9-1.1h-5H99V8.2C99,7.6,98.3,7,97.7,7h-3.3
		C93.8,7,93,7.6,93,8.2V10h-2.3c-0.5,0-0.7,0.6-0.7,1.1v2.7c0,0.5,0.2,1.2,0.7,1.2h1.5c0.5,0,0.8,0.2,0.8,0.7v10.4
		c0,5.1,2.1,8.6,7.6,8.6c1.5,0,2.9-0.3,4-0.6c0.5-0.1,0.8-0.6,0.7-1.1L104.8,30.7z"/>
	<path class="st0" d="M114.2,10c-5.6,0-10.9,4.7-10.9,12.5c0,7.8,5.1,12.4,11.7,12.4c2.7,0,5.2-0.8,7.3-2.1c0.4-0.3,0.6-0.8,0.4-1.3
		l-1-1.9c-0.2-0.4-0.8-0.6-1.3-0.4c-1.5,0.8-3,1.3-4.7,1.3c-3.5,0-6-1.9-6.8-5.5c-0.1-0.6,0.3-1.1,0.9-1.1h13.2
		c0.5,0,0.9-0.4,0.9-0.9c0.1-0.5,0.1-1.2,0.1-1.8C124,14.7,120.6,10,114.2,10z M118.2,20h-8.4c-0.6,0-1.1-0.4-0.9-1
		c0.8-3.2,3-4.8,5.5-4.8c2.9,0,4.5,1.7,4.8,4.9C119.1,19.6,118.7,20,118.2,20z"/>
	<path class="st0" d="M140,9.9c-0.4-0.1-1-0.1-1.6-0.1c-2.5,0-6.3,0.5-8,3.6L130,10h-3.4c-0.7,0-1.6,0.9-1.6,1.6v21.3
		c0,0.7,0.9,1.1,1.6,1.1h3.2c0.7,0,1.3-0.4,1.3-1.1v-13c0-0.2,0-0.3,0.1-0.5c1.5-3.4,4.8-4.6,6.7-4.6c0.5,0,0.9,0,1.3,0.1
		c0.6,0.1,1.3-0.3,1.4-0.9l0.5-2.6C141.1,10.7,140.7,10.1,140,9.9z"/>
	<path class="st0" d="M47.8,7h-3.5C43.7,7,43,7.5,43,8v2h-2.6C30.8,10,27,16.5,27,21.8C27,28.7,30.8,34,40.1,34h7.4
		c0.7,0,1.4-0.7,1.4-1.3V20v-8.7V8C49,7.5,48.4,7,47.8,7z M43,28.1c0,0.7-0.3,0.9-1,0.9h-1.2c-6.4,0-8.2-2.5-8.1-7.2
		c0.1-3.7,1.7-6.8,8.1-6.8H42c0.7,0,1,0.1,1,0.8V20V28.1z"/>
</g>
</svg>
