<?xml version="1.0" encoding="utf-8"?>
<!-- Generator: Adobe Illustrator 17.1.0, SVG Export Plug-In . SVG Version: 6.00 Build 0)  -->
<svg version="1.2" baseProfile="tiny" id="Layer_1" xmlns="http://www.w3.org/2000/svg" xmlns:xlink="http://www.w3.org/1999/xlink"
	 x="0px" y="0px" viewBox="0 0 600 200" xml:space="preserve">
<path fill="#CFE3ED" d="M476.4,60.3H391c-16,0-28.9,13-28.9,28.9v39.1c0,16,13,28.9,28.9,28.9h48.4c6,0,10.9,4.9,10.9,10.9v20.9
	c0,0,22.4-14,31.2-32.3c13.5-2.4,23.7-14.2,23.7-28.4V89.3C505.3,73.3,492.4,60.3,476.4,60.3z"/>
<path fill="#C0DBE9" d="M402.6,166.7h-42.4c-7.9,0-14.4,6.4-14.4,14.4v19.4c0,7.9,6.4,14.4,14.4,14.4h24c3,0,5.4,2.4,5.4,5.4v10.4
	c0,0,11.1-7,15.5-16c6.7-1.2,11.8-7.1,11.8-14.1v-19.4C416.9,173.1,410.5,166.7,402.6,166.7z"/>
<path fill="#C0DBE9" d="M402.6-31.6h-42.4c-7.9,0-14.4,6.4-14.4,14.4V2.2c0,7.9,6.4,14.4,14.4,14.4h24c3,0,5.4,2.4,5.4,5.4v10.4
	c0,0,11.1-7,15.5-16c6.7-1.2,11.8-7.1,11.8-14.1v-19.4C416.9-25.2,410.5-31.6,402.6-31.6z"/>
<path fill="#C0DBE9" d="M573,80h-42.4c-7.9,0-14.4,6.4-14.4,14.4v19.4c0,7.9,6.4,14.4,14.4,14.4h24c3,0,5.4,2.4,5.4,5.4v10.4
	c0,0,11.1-7,15.5-16c6.7-1.2,11.8-7.1,11.8-14.1V94.4C587.4,86.4,580.9,80,573,80z"/>
<path fill="#C0DBE9" d="M536.9,155h-23.6c-4.4,0-8,3.6-8,8v10.8c0,4.4,3.6,8,8,8h13.4c1.7,0,3,1.3,3,3v5.8c0,0,6.2-3.9,8.6-8.9
	c3.7-0.7,6.6-3.9,6.6-7.8v-10.8C544.8,158.5,541.3,155,536.9,155z"/>
<path fill="#C0DBE9" d="M329,80h-33.7c-6.3,0-11.4,5.1-11.4,11.4v15.4c0,6.3,5.1,11.4,11.4,11.4h19.1c2.4,0,4.3,1.9,4.3,4.3v8.3
	c0,0,8.9-5.5,12.3-12.8c5.3-1,9.4-5.6,9.4-11.2V91.4C340.4,85.1,335.3,80,329,80z"/>
<path fill="#CFE3ED" d="M528,6.9h-33.7c-6.3,0-11.4,5.1-11.4,11.4v15.4c0,6.3,5.1,11.4,11.4,11.4h19.1c2.4,0,4.3,1.9,4.3,4.3v8.3
	c0,0,8.9-5.5,12.3-12.8c5.3-1,9.4-5.6,9.4-11.2V18.3C539.4,12,534.3,6.9,528,6.9z"/>
</svg>
