<?xml version="1.0" encoding="utf-8"?>
<!-- Generator: Adobe Illustrator 18.0.0, SVG Export Plug-In . SVG Version: 6.00 Build 0)  -->
<!DOCTYPE svg PUBLIC "-//W3C//DTD SVG 1.1//EN" "http://www.w3.org/Graphics/SVG/1.1/DTD/svg11.dtd">
<svg version="1.1" id="Color" xmlns="http://www.w3.org/2000/svg" xmlns:xlink="http://www.w3.org/1999/xlink" x="0px" y="0px"
	 viewBox="0 0 200 65" style="enable-background:new 0 0 200 65;" xml:space="preserve">
<symbol  id="Skyway_Mark" viewBox="-69.6 -22.2 139.2 44.4">
	<path style="fill:#575757;" d="M-52.9,6.5l-4.5,1.9c-2.8,1.1-5.3,2.1-5.3,4.7c0,2.5,2,3.9,5.2,3.9c2.4,0,4.4-0.8,6.2-2
		c0.6-0.4,1.4-0.3,1.9,0.3l1.3,1.7c0.5,0.6,0.4,1.5-0.2,2c-2.5,2-5.8,3.3-9.3,3.3c-6.5,0-11.2-4.1-11.2-9.4c0-4.9,3.4-7.5,6.7-8.9
		l4.6-2c3.1-1.3,5.2-2.1,5.2-4.9c0-2.6-2.1-4.3-5.8-4.3c-2.7,0-5.5,1.1-7.7,2.9c-0.6,0.5-1.5,0.4-1.9-0.2l-1.6-1.9
		c-0.5-0.6-0.4-1.5,0.2-2c3-2.5,6.9-4,11-4c7.5,0,12,4.5,12,9.9C-46.1,2.3-48.9,4.8-52.9,6.5z"/>
	<path style="fill:#575757;" d="M38.2,13.2c-4,0-5.5,0.3-12,0H26c-0.7,0-1.3-0.5-1.4-1.1L21.8,0.2c-0.5-2.4-0.9-4.8-1.3-7.2h-0.2
		c-0.6,2.5-1.1,4.8-1.7,7.2l-3,11.9c-0.2,0.6-0.7,1.1-1.4,1.1H11c-0.7,0-1.2-0.5-1.4-1.1l-3-11.9C6-2.1,5.5-4.6,5-7H4.8
		C4.4-4.6,4-2.2,3.5,0.2L0.8,12.1c-0.2,0.7-0.7,1.1-1.4,1.1h-2.9c-0.1,0-0.3,0-0.4-0.1c-0.1,0-0.3,0.1-0.4,0.1h-2.4
		c-0.7,0-1.3-0.4-1.5-1.1l-3.4-11.2c-0.6-2.2-1.3-4.8-1.9-7.1h-0.2c-0.8,2.4-1.5,4.9-2.2,7.1l-3.9,11c-0.3,0.8-1,1.3-1.8,1.3H-23
		h-3.2h-1.4c-1.1,0-2.2-0.5-2.9-1.4l-8.2-10.2h-0.2v10.1c0,0.7-0.6,1.3-1.3,1.3h-3.2c-0.7,0-1.3-0.6-1.3-1.3v-22.4
		c0-0.7,0.6-1.3,1.3-1.3h3.2c0.7,0,1.3,0.6,1.3,1.3v4.7c0,0.3,0.1,0.6,0.3,0.8l2.5,2.8c0.6,0.6,1.6,0.6,2-0.2l5.2-8.8
		c0.2-0.4,0.6-0.6,1.1-0.6h3.4c1,0,1.6,1.1,1.1,1.9l-7.7,12.2c-0.3,0.5-0.3,1.1,0.1,1.5l3.9,4.6l0,0c0,0,0.6,0.8,1.6,0.9
		c0.9,0.1,1.4-1.2,1.4-1.2l7.6-19c0.1-0.3,0.1-0.7,0-1l-0.3-1.1c-0.8-2.5-2.4-4.3-5-4.3c-0.2,0-0.3,0-0.5,0
		c-0.8,0.1-1.5-0.4-1.7-1.2l-0.4-1.6c-0.2-0.9,0.4-1.7,1.2-1.9c0.5-0.1,1-0.1,1.7-0.1c5.5,0,8.1,3.5,10.2,9.2l6.6,19.1h0
		c0,0,0.4,1,1.1,0l4.5-16.9c0.2-0.6,0.7-1.1,1.4-1.1h4.5c0.7,0,1.2,0.5,1.4,1.1l2.6,10.6c0.6,2.4,1,4.7,1.5,7.4h0.2
		c0.6-2.7,1-5,1.5-7.3l2.6-10.6c0.2-0.6,0.7-1.1,1.4-1.1h4.8c0.7,0,1.2,0.4,1.4,1.1l4.9,19.3c1.9,1.1,6.4,0.7,8.1,0.6
		c3.2-0.1,4.3-2,4.5-4.4c0-0.3-0.2-0.5-0.5-0.6c-8.6-1-13-3.2-14-7.2c-1.3-4.8,2.6-9.7,7.6-9.4c2.8,0.1,5.2,1.6,7.3,3.4h0.2l0.3-1.7
		c0.1-0.6,0.6-1,1.2-1h2.5c0.7,0,1.2,0.6,1.2,1.2V3C47.7,10,44.5,13.2,38.2,13.2z M41.8-4.9c0-0.1-0.1-0.3-0.2-0.4
		c-1.8-1.6-3.3-2.6-5.3-2.6c-2.1,0-3.6,1-3.6,3.2c0,2.4,2.1,4.2,8.5,5.1c0.3,0,0.6-0.2,0.6-0.5V-4.9z"/>
	<path style="fill:#575757;" d="M68,13.2h-2.1c-0.7,0-1.4-0.5-1.6-1.2L60.8,0.9c-0.6-2.2-1.3-4.8-1.9-7.1h-0.2
		c-0.8,2.4-1.5,4.9-2.2,7.1l-4,11.2c-0.2,0.7-0.9,1.1-1.6,1.1h-3.3c-0.1,0-0.1,0-0.1,0l-2.4,0c-0.4,0-0.5-0.5-0.2-0.7
		c1-0.6,2.2-1.8,3.1-4L55.9-11c0.1-0.3,0.2-0.7,0.1-1.1l-0.3-1c-0.8-2.5-2.4-4.3-5-4.3c-0.1,0-0.2,0-0.4,0c-0.8,0.1-1.6-0.4-1.8-1.2
		l-0.3-1.5c-0.2-0.9,0.4-1.9,1.4-2c0.5-0.1,1-0.1,1.5-0.1c5.5,0,8.1,3.5,10.2,9.2l8.3,24C69.9,12.1,69.1,13.2,68,13.2z"/>
</symbol>
<g id="Skyway">

		<use xlink:href="#Skyway_Mark"  width="139.2" height="44.4" id="XMLID_3_" x="-69.6" y="-22.2" transform="matrix(1 0 0 -1 70.8952 28.5943)" style="overflow:visible;"/>
</g>
<g id="Labels">
	<g>
		<g>
			<path style="fill:#00A9A3;" d="M149.6,9c1.7,0,3.1,0.8,4.1,1.8l-1.9,2.2c-0.7-0.6-1.2-0.9-2.1-0.9c-1.6,0-3,1.4-3,3.9
				c0,2.5,1.1,3.9,2.9,3.9c1,0,1.8-0.5,2.3-1.1l1.9,2.1c-1.1,1.3-2.7,2-4.3,2c-3.5,0-6.4-2.3-6.4-6.8C143.1,11.5,146.2,9,149.6,9z"
				/>
			<path style="fill:#00A9A3;" d="M160.4,9c1.7,0,3.1,0.8,4.1,1.8l-1.9,2.2c-0.7-0.6-1.2-0.9-2.1-0.9c-1.6,0-3,1.4-3,3.9
				c0,2.5,1.1,3.9,2.9,3.9c1,0,1.8-0.5,2.3-1.1l1.9,2.1c-1.1,1.3-2.7,2-4.3,2c-3.5,0-6.4-2.3-6.4-6.8C153.9,11.5,157,9,160.4,9z"/>
		</g>
	</g>
</g>
<g>
</g>
<g>
</g>
<g>
</g>
</svg>
