<?xml version="1.0" encoding="utf-8"?>
<!-- Generator: Adobe Illustrator 18.0.0, SVG Export Plug-In . SVG Version: 6.00 Build 0)  -->
<svg version="1.2" baseProfile="tiny" id="Layer_1" xmlns="http://www.w3.org/2000/svg" xmlns:xlink="http://www.w3.org/1999/xlink"
	 x="0px" y="0px" viewBox="0 0 181.6 74.3" xml:space="preserve">
<path fill="none" d="M155.6,31.5C155.6,31.5,155.6,31.5,155.6,31.5C155.6,31.5,155.6,31.5,155.6,31.5z"/>
<g>
	<path fill="#59595C" d="M11.3,31.2c-0.1,0.6-0.2,1.3-0.2,1.9c0,0.7,0.1,1.3,0.2,2H18v22c0.4,0,0.8,0.1,1.1,0.1c0.9,0,1.7,0.1,2.6,0
		c0.3,0,0.7-0.1,1-0.1v-22h6.7c0.1-0.6,0.2-1.3,0.2-2c0-0.6-0.1-1.3-0.2-1.9H11.3z"/>
	<path fill="#59595C" d="M43.3,40.7c-0.7-0.8-1.5-1.4-2.5-1.8c-1-0.4-2.1-0.7-3.4-0.7c-1.5,0-2.8,0.3-3.9,0.8
		c-1.1,0.5-2,1.2-2.8,2.1c-0.7,0.9-1.3,1.9-1.7,3.1c-0.4,1.2-0.6,2.5-0.6,3.8c0,1.4,0.2,2.7,0.6,3.8c0.4,1.2,0.9,2.2,1.7,3
		c0.8,0.8,1.8,1.5,3,2c1.2,0.5,2.7,0.7,4.4,0.7c2.3,0,4.3-0.3,6.1-1c0-0.7-0.1-1.3-0.3-1.9c-0.2-0.5-0.3-1-0.5-1.4
		c-0.7,0.3-1.5,0.5-2.3,0.6c-0.9,0.2-1.8,0.2-2.6,0.2c-1.6,0-2.9-0.4-3.9-1.1c-1-0.7-1.6-1.9-1.7-3.5l0-0.4h12.3
		c0-0.2,0.1-0.5,0.1-0.8c0-0.4,0.1-0.9,0.1-1.4c0-1.2-0.2-2.4-0.5-3.5C44.5,42.4,44,41.5,43.3,40.7z M33,46.1l0-0.4
		c0.1-1.3,0.5-2.4,1.2-3.1c0.7-0.8,1.7-1.1,3.1-1.1c1.2,0,2.1,0.4,2.8,1.2c0.6,0.8,1,1.8,1.1,3.1l0,0.4H33z"/>
	<path fill="#59595C" d="M93.3,40c-1.9-1.6-4.8-2.1-8.7-1.5c-1,0.2-2,0.4-3,0.7c0,0.6,0.1,1.2,0.2,1.7c0.1,0.5,0.3,1,0.6,1.5
		c1.4-0.5,2.8-0.7,4.1-0.7c0.6,0,1.2,0,1.7,0.1c0.5,0.1,1,0.2,1.4,0.5c0.4,0.2,0.7,0.6,0.9,1c0.2,0.4,0.3,1,0.3,1.6v0.8l-0.4,0
		c-0.8-0.1-1.6-0.1-2.3-0.1c-1,0-1.9,0.1-2.9,0.3c-0.9,0.2-1.8,0.5-2.6,1c-0.7,0.4-1.4,1.1-1.8,1.8c-0.5,0.7-0.7,1.7-0.7,2.8
		c0,1.1,0.2,2.1,0.6,2.8c0.4,0.8,0.9,1.4,1.6,1.9c0.7,0.5,1.6,0.8,2.6,1.1c1,0.2,2.2,0.3,3.4,0.3c1.5,0,2.9-0.1,4.1-0.4
		c1.1-0.2,2.1-0.4,2.9-0.7V45.6C95.4,43,94.7,41.1,93.3,40z M91,53.8l-0.3,0.1c-0.3,0-0.6,0.1-1,0.2c-0.4,0.1-0.8,0.1-1.2,0.1
		c-0.3,0-0.7,0-1.2-0.1c-0.5,0-0.9-0.1-1.3-0.3c-0.4-0.2-0.8-0.5-1.1-0.9c-0.3-0.4-0.5-1-0.5-1.7c0-1.1,0.4-1.9,1.2-2.4
		c0.8-0.5,1.8-0.7,3-0.7c0.3,0,0.6,0,1,0.1c0.4,0,0.7,0.1,1,0.1l0.3,0V53.8z"/>
	<path fill="#59595C" d="M112.6,53.7c0.4-0.7,0.5-1.5,0.5-2.4c0-0.8-0.1-1.6-0.3-2.1c-0.2-0.6-0.5-1-0.8-1.4c-0.4-0.4-0.8-0.7-1.3-1
		c-0.5-0.3-1.1-0.5-1.8-0.7l-2.1-0.6c-0.7-0.2-1.2-0.4-1.5-0.7c-0.4-0.3-0.7-0.8-0.7-1.4c0-0.7,0.3-1.2,0.9-1.5
		c0.5-0.3,1.2-0.4,2.1-0.4c0.8,0,1.6,0.1,2.3,0.3c0.6,0.2,1.2,0.3,1.7,0.5c0.2-0.4,0.4-0.9,0.5-1.5c0.2-0.6,0.3-1.1,0.3-1.7
		c-0.9-0.3-1.7-0.5-2.5-0.7c-0.9-0.2-1.8-0.3-2.8-0.3c-2.2,0-4,0.5-5.3,1.5c-1.3,1-1.9,2.3-1.9,4.1c0,1.4,0.4,2.5,1.1,3.2
		c0.7,0.7,1.8,1.3,3.1,1.7l2.3,0.7c0.7,0.2,1.2,0.5,1.6,0.7c0.5,0.3,0.7,0.9,0.7,1.6c0,0.5-0.1,0.9-0.4,1.2c-0.3,0.3-0.6,0.5-1,0.7
		c-0.4,0.2-0.8,0.3-1.2,0.4c-0.4,0.1-0.8,0.1-1.2,0.1c-0.8,0-1.6-0.1-2.3-0.2c-0.6-0.1-1.3-0.3-2-0.6c-0.2,0.5-0.4,1.1-0.6,1.6
		c-0.2,0.6-0.3,1.1-0.3,1.7c0.4,0.2,0.8,0.3,1.2,0.4c0.4,0.1,0.9,0.2,1.3,0.3c0.4,0.1,0.9,0.1,1.4,0.2c0.5,0,1,0.1,1.6,0.1
		c1.3,0,2.4-0.2,3.4-0.5c1-0.3,1.8-0.8,2.5-1.3C111.7,55.1,112.2,54.5,112.6,53.7z"/>
	<path fill="#59595C" d="M126.7,64c0.4-0.6,0.7-1.3,1-2.2l7-23.2c-0.4-0.1-0.8-0.1-1.1-0.1c-1.3,0-2.3,0-3.4,0.2l-3.7,13.6
		c-0.1,0.7-0.6,1-0.9,1c-0.6,0-1.1-0.6-1.3-1.4c-0.6-1.9-2.8-11.5-3.1-13.1c-0.3-0.1-0.7-0.1-1.1-0.1c-0.9,0-1.7,0-2.7,0
		c-0.3,0-0.7,0.1-1.1,0.1l4.2,14.3c0.8,3.9,3.4,4.2,4.1,4.2c0.1,0,0.1,0,0.2,0l0.5,0l-0.8,2.8c-0.2,0.7-0.4,1.3-0.7,1.8
		c-0.3,0.4-0.6,0.8-0.9,1c-0.3,0.2-0.7,0.3-1,0.4c-0.7,0.1-1.4,0.1-2.1,0c-0.2,0-0.4-0.1-0.6-0.1c-0.1,0.4-0.3,0.8-0.4,1.2
		c-0.1,0.5-0.2,1-0.2,1.6v0.3c0,0,0,0,0,0c0.5,0.1,0.9,0.2,1.4,0.3c1.1,0.2,2.6,0.2,3.8-0.1c0.6-0.1,1.1-0.4,1.6-0.7
		C125.9,65,126.4,64.6,126.7,64z"/>
	<path fill="#59595C" d="M149.6,53.7c0.4-0.7,0.5-1.5,0.5-2.4c0-0.8-0.1-1.6-0.3-2.1c-0.2-0.6-0.5-1-0.8-1.4c-0.4-0.4-0.8-0.7-1.3-1
		c-0.5-0.3-1.1-0.5-1.8-0.7l-2.1-0.6c-0.7-0.2-1.2-0.4-1.5-0.7c-0.4-0.3-0.7-0.8-0.7-1.4c0-0.7,0.3-1.2,0.9-1.5
		c0.5-0.3,1.2-0.4,2.1-0.4c0.8,0,1.6,0.1,2.3,0.3c0.6,0.2,1.2,0.3,1.7,0.5c0.2-0.4,0.4-0.9,0.5-1.5c0.2-0.6,0.3-1.1,0.3-1.7
		c-0.9-0.3-1.7-0.5-2.5-0.7c-0.9-0.2-1.8-0.3-2.8-0.3c-2.2,0-4,0.5-5.3,1.5c-1.3,1-1.9,2.3-1.9,4.1c0,1.4,0.4,2.5,1.1,3.2
		c0.7,0.7,1.8,1.3,3.1,1.7l2.3,0.7c0.7,0.2,1.2,0.5,1.6,0.7c0.5,0.3,0.7,0.9,0.7,1.6c0,0.5-0.1,0.9-0.4,1.2c-0.3,0.3-0.6,0.5-1,0.7
		c-0.4,0.2-0.8,0.3-1.2,0.4c-0.4,0.1-0.8,0.1-1.2,0.1c-0.8,0-1.6-0.1-2.3-0.2c-0.6-0.1-1.3-0.3-2-0.6c-0.2,0.5-0.4,1.1-0.6,1.6
		c-0.2,0.6-0.3,1.1-0.3,1.7c0.4,0.2,0.8,0.3,1.2,0.4c0.4,0.1,0.9,0.2,1.3,0.3c0.4,0.1,0.9,0.1,1.4,0.2c0.5,0,1,0.1,1.6,0.1
		c1.3,0,2.4-0.2,3.4-0.5c1-0.3,1.8-0.8,2.5-1.3C148.7,55.1,149.2,54.5,149.6,53.7z"/>
	<path fill="#59595C" d="M76.2,44.4c0,0,0-1.6-0.9-3.1c-1.1-2-3.2-3.1-6.1-3.1l-0.1,0c-0.7,0-4.3,0.1-6.1,2.6l-0.3,0.4l-0.3-0.4
		c-1.8-2.4-5.4-2.6-6.1-2.6l-0.1,0c-2.2,0-4,0.6-5.2,1.8c-1.8,1.8-1.8,4.3-1.8,4.3l0,12.8c0.7,0.2,1.4,0.3,2.2,0.3
		c1.1,0,2-0.2,2.4-0.3l0-11c0-0.1-0.1-2.1,1-3.3c0.5-0.5,1.1-0.8,1.9-0.8c1.1,0,2,0.4,2.7,1c1.2,1.2,1.1,3.1,1.1,3.2l0,10.7
		c0.4,0.1,1.1,0.2,2.1,0.2l0.1,0l0.1,0.3l0-0.3l0.1,0c1,0,1.7-0.2,2.1-0.2l0-10.7c0-0.1-0.1-2,1.1-3.2c0.7-0.7,1.6-1,2.7-1
		c0.8,0,1.4,0.3,1.9,0.8c1.1,1.2,1,3.2,1,3.3l0,10.9c0.4,0.1,1.3,0.3,2.4,0.3h0c0.8,0,1.5-0.1,2.2-0.3L76.2,44.4z"/>
</g>
<path fill="none" d="M168.6,24.7c0-0.5,0.1-1,0.3-1.5c0,0,0,0-0.1,0c-2.1-0.6-5.1-0.8-7.6,1.5c0.3,0.5,1.1,0.9,1.1,1
	c1.2,0.8,3.4,1.6,6.6,0.6c0,0,0-0.1,0-0.1C168.7,25.8,168.6,25.3,168.6,24.7z"/>
<path fill="#00A9A1" d="M172.1,21.2c-0.4,0-2.4,0.1-3.1,0.1c0,0,0,0,0,0c-0.6,0-1.7,0-3.5,0.2c-2.9,0.4-4.8,1.8-5,2
	c-0.3-0.6-0.6-1.3-0.6-1.3c-0.2-0.8-0.3-1.5-0.3-2.1c0-0.3,0.1-0.4,0.1-0.4c1.5-0.4,2.5-1.7,2.5-3.3c0-1.9-1.6-3.5-3.5-3.5
	c-1.9,0-3.5,1.6-3.5,3.5c0,4.2,4,8.3,4,8.3c-2.1,2.2-4,5.9-4,8.2c0,1.9,1.6,3.5,3.5,3.5c1.9,0,3.5-1.6,3.5-3.5
	c0-1.6-1.1-2.9-2.5-3.3c-0.1-0.1-0.1-0.2-0.1-0.3c0-1.9,0.9-3.4,0.9-3.4c2.4,2.2,6.9,2.4,8.5,2.3c0,0,0,0,0,0c0.8,0,2.9,0,3.1,0
	c1.9,0,3.5-1.6,3.5-3.5C175.6,22.8,174,21.2,172.1,21.2z M155.6,31.5C155.6,31.5,155.6,31.5,155.6,31.5
	C155.6,31.5,155.6,31.5,155.6,31.5z M162.4,25.7c0,0-0.8-0.5-1.1-1c2.4-2.4,5.5-2.1,7.6-1.5c0,0,0,0,0.1,0c-0.2,0.5-0.3,1-0.3,1.5
	c0,0.5,0.1,1.1,0.4,1.5c0,0,0,0.1,0,0.1C165.8,27.3,163.6,26.5,162.4,25.7z"/>
<circle fill="#EB2426" cx="150.3" cy="24.7" r="3.5"/>
</svg>
